<svg width="317" height="114" viewBox="0 0 317 114" fill="none" xmlns="http://www.w3.org/2000/svg">
<path fill-rule="evenodd" clip-rule="evenodd" d="M90.89 64.177C90.89 64.177 112.312 51.3287 127.764 64.7845C133.28 69.5879 136.281 76.4089 136.281 83.4621V98.5552L251.095 89.3876C251.095 89.3876 249.315 60.6916 276.016 54.6211C276.016 54.6211 247.535 54.8011 242.64 85.2206L145.182 91.0545V82.4741C145.182 77.1665 142.7 72.3977 140.187 67.6402C134.946 57.718 114.476 44.1751 90.89 64.177Z" fill="#5D5FEF"/>
<path fill-rule="evenodd" clip-rule="evenodd" d="M132.951 88.7855C132.951 102.6 122.193 113.799 108.922 113.799C95.6503 113.799 84.8917 102.6 84.8917 88.7855C84.8917 74.9709 95.6503 63.7719 108.922 63.7719C122.193 63.7719 132.951 74.9709 132.951 88.7855Z" fill="#5D5FEF"/>
<path fill-rule="evenodd" clip-rule="evenodd" d="M295.77 81.8286C295.77 93.1855 286.926 102.392 276.016 102.392C265.106 102.392 256.262 93.1855 256.262 81.8286C256.262 70.4721 265.106 61.2654 276.016 61.2654C286.926 61.2654 295.77 70.4721 295.77 81.8286Z" fill="#5D5FEF"/>
<path fill-rule="evenodd" clip-rule="evenodd" d="M316.512 63.9686C315.177 58.5514 313.842 47.7171 313.842 45.2169C313.842 42.7166 308.502 33.9658 308.502 33.9658C285.51 32.1602 260.589 13.8252 238.635 8.54676C183 -4.82907 160.906 0.187645 137.617 8.54676C114.882 16.7071 93.5601 33.5491 93.5601 33.5491C93.5601 33.5491 113.143 25.3758 129.458 17.9922C147.258 9.93564 179.003 11.8804 179.003 11.8804C179.003 11.8804 165.207 30.6322 153.637 34.7992C142.067 38.9663 108.133 34.9001 52.322 38.2716C-2.85984 41.6053 0.10707 68.9691 0.10707 68.9691C5.44724 56.4679 18.8119 48.5255 33.9282 46.0503C49.0444 43.575 105.131 43.4825 128.864 44.2447C195.706 46.3911 240.858 41.2786 255.384 39.295C231.127 41.7757 161.628 38.7796 161.628 38.7796C193.07 7.52666 198.039 10.3615 214.604 13.5472C234.499 17.3738 243.085 19.7978 256.435 23.9649C269.786 28.1319 274.236 40.6331 274.236 40.6331C226.619 52.7176 111.806 49.1626 111.806 49.1626C222.169 66.443 297.822 41.4665 303.607 44.3834C309.392 47.3004 309.392 62.7185 307.167 71.4693C306.059 75.8272 301.861 81.3211 297.925 85.7394C297.639 87.3875 297.179 88.9722 296.559 90.4694L309.837 83.9705C309.837 83.9705 317.847 69.3858 316.512 63.9686Z" fill="#5D5FEF"/>
</svg>
